Coordinates
version=1
nRows=60
nColumns=12
inDegrees=yes

Units are S.I. units (second, meters, Newtons, ...)
Angles are in degrees

endheader
time	SC_y	SC_z	SC_x	AC_y	AC_z	AC_x	GH_y	GH_z	GH_yy	EL_x	PS_y
       0.0              -49.31          15.77          17.52          63.93         -17.75         -7.536         -148.0          65.38          146.4          86.35          141.9
   0.03522              -49.31          15.77          17.52          63.93         -17.74         -7.533         -148.0          65.38          146.3          86.35          141.9
   0.07045               -49.3          15.77          17.52          63.93         -17.74          -7.53         -147.9          65.37          146.3          86.34          141.9
    0.1057               -49.3          15.77          17.52          63.93         -17.74         -7.526         -147.9          65.37          146.3          86.34          141.9
    0.1409              -49.29          15.77          17.52          63.93         -17.73         -7.523         -147.9          65.36          146.3          86.33          141.9
    0.1761              -49.29          15.77          17.52          63.93         -17.73         -7.519         -147.8          65.36          146.3          86.32          141.9
    0.2113              -49.28          15.77          17.52          63.93         -17.73         -7.515         -147.8          65.35          146.3          86.32          141.9
    0.2466              -49.27          15.77          17.52          63.93         -17.72         -7.511         -147.7          65.35          146.2          86.31          141.9
    0.2818              -49.27          15.77          17.52          63.93         -17.72         -7.507         -147.7          65.34          146.2           86.3          141.9
     0.317              -49.26          15.77          17.52          63.93         -17.71         -7.502         -147.6          65.34          146.2          86.29          141.9
    0.3522              -49.25          15.77          17.52          63.92         -17.71         -7.496         -147.6          65.33          146.1          86.28          141.9
    0.3875              -49.24          15.77          17.52          63.92          -17.7         -7.491         -147.5          65.33          146.1          86.28          141.9
    0.4227              -49.23          15.77          17.52          63.92          -17.7         -7.485         -147.4          65.32          146.1          86.26          141.8
    0.4579              -49.22          15.77          17.52          63.92         -17.69         -7.478         -147.4          65.31          146.0          86.25          141.8
    0.4931              -49.21          15.77          17.52          63.92         -17.68         -7.471         -147.3           65.3          146.0          86.24          141.8
    0.5284               -49.2          15.77          17.52          63.92         -17.67         -7.464         -147.2          65.29          146.0          86.23          141.8
    0.5636              -49.18          15.77          17.53          63.91         -17.67         -7.455         -147.1          65.28          145.9          86.21          141.8
    0.5988              -49.17          15.77          17.53          63.91         -17.66         -7.446         -147.0          65.27          145.9           86.2          141.8
     0.634              -49.15          15.78          17.53          63.91         -17.65         -7.436         -146.9          65.26          145.8          86.18          141.7
    0.6693              -49.13          15.78          17.53          63.91         -17.64         -7.425         -146.8          65.25          145.7          86.16          141.7
    0.7045              -49.11          15.78          17.53          63.91         -17.63         -7.413         -146.7          65.23          145.7          86.14          141.7
    0.7397              -49.09          15.78          17.53           63.9         -17.61           -7.4         -146.5          65.22          145.6          86.12          141.7
    0.7749              -49.07          15.78          17.53           63.9          -17.6         -7.386         -146.4           65.2          145.5          86.09          141.6
    0.8102              -49.04          15.78          17.54           63.9         -17.58          -7.37         -146.2          65.18          145.4          86.07          141.6
    0.8454              -49.01          15.78          17.54          63.89         -17.56         -7.352         -146.0          65.16          145.3          86.04          141.6
    0.8806              -48.98          15.78          17.54          63.89         -17.54         -7.332         -145.8          65.14          145.2           86.0          141.5
    0.9158              -48.94          15.78          17.54          63.88         -17.52          -7.31         -145.5          65.11          145.1          85.96          141.5
    0.9511               -48.9          15.78          17.55          63.88          -17.5         -7.285         -145.2          65.08          145.0          85.92          141.4
    0.9863              -48.85          15.79          17.55          63.87         -17.47         -7.256         -144.9          65.05          144.8          85.87          141.4
     1.022               -48.8          15.79          17.55          63.86         -17.44         -7.224         -144.6          65.01          144.6          85.82          141.3
     1.057              -48.74          15.79          17.56          63.85          -17.4         -7.187         -144.2          64.96          144.4          85.75          141.2
     1.092              -48.67          15.79          17.56          63.84         -17.36         -7.145         -143.7          64.91          144.2          85.68          141.1
     1.127              -48.59          15.79          17.57          63.83         -17.31         -7.097         -143.2          64.85          143.9           85.6          141.0
     1.162               -48.5           15.8          17.57          63.82         -17.25          -7.04         -142.6          64.79          143.6           85.5          140.9
     1.198              -48.39           15.8          17.58           63.8         -17.19         -6.974         -141.8          64.71          143.2          85.39          140.7
     1.233              -48.26          15.81          17.59          63.79         -17.11         -6.896         -141.0          64.62          142.8          85.25          140.6
     1.268              -48.11          15.81           17.6          63.77         -17.02         -6.803         -140.0           64.5          142.2          85.09          140.4
     1.303              -47.92          15.82          17.61          63.74         -16.91         -6.692         -138.7          64.37          141.6           84.9          140.1
     1.339               -47.7          15.83          17.63          63.71         -16.77         -6.558         -137.3          64.21          140.9          84.67          139.9
     1.374              -47.43          15.83          17.65          63.67         -16.61         -6.394         -135.5          64.02          139.9          84.39          139.5
     1.409               -47.1          15.85          17.67          63.62         -16.41         -6.191         -133.3          63.77          138.8          84.04          139.1
     1.444              -46.68          15.86           17.7          63.57         -16.16         -5.938         -130.5          63.47          137.4          83.61          138.5
     1.479              -46.16          15.88          17.74          63.49         -15.84          -5.62         -127.0          63.09          135.6          83.06          137.8
     1.515              -45.49           15.9          17.79           63.4         -15.44         -5.215         -122.6          62.61          133.3          82.37          137.0
      1.55              -44.64          15.93          17.85          63.28         -14.92         -4.697         -116.9          61.99          130.4          81.48          135.9
     1.585              -43.54          15.97          17.93          63.13         -14.26         -4.032         -109.6           61.2          126.7          80.34          134.4
      1.62              -42.14          16.02          18.03          62.94         -13.42         -3.183         -100.3          60.18          121.9          78.88          132.6
     1.656              -40.38          16.08          18.15          62.69         -12.35         -2.116         -88.57          58.91          115.9          77.04          130.3
     1.691              -38.24          16.15           18.3          62.39         -11.06        -0.8144         -74.31          57.35          108.6          74.81          127.6
     1.726              -35.75          16.24          18.48          62.05          -9.56         0.6937         -57.77          55.55          100.1          72.22          124.3
     1.761              -33.06          16.34          18.67          61.67         -7.935          2.327         -39.87           53.6          90.93          69.42          120.8
     1.796              -30.37          16.43          18.87           61.3          -6.31           3.96         -21.97          51.65          81.75          66.61          117.3
     1.832              -27.88          16.52          19.04          60.95          -4.81          5.468         -5.434          49.85          73.27          64.02          114.1
     1.867              -25.74          16.59           19.2          60.65         -3.515          6.769          8.831           48.3          65.96          61.79          111.3
     1.902              -23.98          16.65          19.32          60.41         -2.453          7.837          20.54          47.02          59.96          59.95          109.0
     1.937              -22.58           16.7          19.42          60.22         -1.609          8.686          29.85          46.01          55.19           58.5          107.2
     1.973              -21.48          16.74           19.5          60.06        -0.9472           9.35          37.13          45.21          51.45          57.35          105.8
     2.008              -20.63          16.77          19.56          59.94        -0.4318          9.868          42.81          44.59          48.54          56.47          104.7
     2.043              -19.96          16.79          19.61          59.85       -0.02918          10.27          47.25          44.11          46.26          55.77          103.8
     2.078              -19.44          16.81          19.64          59.78         0.2875          10.59          50.74          43.73          44.47          55.22          103.1
